<svg width="558" height="558" viewBox="0 0 558 558" fill="none" xmlns="http://www.w3.org/2000/svg">
<mask id="mask0_474_175" style="mask-type:alpha" maskUnits="userSpaceOnUse" x="0" y="0" width="558" height="558">
<circle cx="278.556" cy="278.556" r="278.556" fill="#D9D9D9"/>
</mask>
<g mask="url(#mask0_474_175)">
<path d="M-265 -2.6062H690.999V561.394H-265V-2.6062Z" fill="#1E50A0"/>
<path d="M274.677 173.362V220.025H431.662L690.999 67.0181V-2.6062H572.98L274.677 173.362Z" fill="white"/>
<path d="M690.999 -2.6062H631.99L274.677 208.196V220.025H328.367L690.999 6.09128V-2.6062Z" fill="#D22F27"/>
<path d="M572.995 561.398H690.999V491.759L431.677 338.766H274.677V385.415L572.995 561.398Z" fill="white"/>
<path d="M691 561.398V526.563L372.668 338.766H298.855L676.228 561.398H691Z" fill="#D22F27"/>
<path d="M151.322 385.43V338.766H-5.66208L-265 491.774V561.398H-146.98L151.322 385.43Z" fill="white"/>
<path d="M-265 561.398H-205.99L151.322 350.596V338.766H97.6321L-265 552.7V561.398Z" fill="#D22F27"/>
<path d="M-146.996 -2.6062H-265V67.0329L-5.67749 220.025H151.322V173.377L-146.996 -2.6062Z" fill="white"/>
<path d="M-265 -2.6062V32.2282L53.3477 220.025H127.145L-250.228 -2.6062H-265Z" fill="#D22F27"/>
<path d="M-265 205.185H690.999V353.606H-265V205.185Z" fill="white"/>
<path d="M135.903 -2.6062H290.097V561.394H135.903V-2.6062Z" fill="white"/>
<path d="M-265 234.871H690.999V323.923H-265V234.871Z" fill="#D22F27"/>
<path d="M166.74 -2.6062H259.256V561.394H166.74V-2.6062Z" fill="#D22F27"/>
<path d="M274.677 173.362V220.025H431.662L690.999 67.0181V-2.6062H572.98L274.677 173.362Z" fill="white"/>
<path d="M690.999 -2.6062H631.99L274.677 208.196V220.025H328.367L690.999 6.09128V-2.6062Z" fill="#D22F27"/>
<path d="M572.995 561.398H690.999V491.759L431.677 338.766H274.677V385.415L572.995 561.398Z" fill="white"/>
<path d="M691 561.398V526.563L372.668 338.766H298.855L676.228 561.398H691Z" fill="#D22F27"/>
<path d="M151.322 385.43V338.766H-5.66208L-265 491.774V561.398H-146.98L151.322 385.43Z" fill="white"/>
<path d="M-265 561.398H-205.99L151.322 350.596V338.766H97.6321L-265 552.7V561.398Z" fill="#D22F27"/>
<path d="M-146.996 -2.6062H-265V67.0329L-5.67749 220.025H151.322V173.377L-146.996 -2.6062Z" fill="white"/>
<path d="M-265 -2.6062V32.2282L53.3477 220.025H127.145L-250.228 -2.6062H-265Z" fill="#D22F27"/>
<path d="M-265 205.185H690.999V353.606H-265V205.185Z" fill="white"/>
<path d="M135.903 -2.6062H290.097V561.394H135.903V-2.6062Z" fill="white"/>
<path d="M-265 234.871H690.999V323.923H-265V234.871Z" fill="#D22F27"/>
<path d="M166.74 -2.6062H259.256V561.394H166.74V-2.6062Z" fill="#D22F27"/>
</g>
</svg>
