<?xml version="1.0" encoding="utf-8"?>
<!-- Generator: Adobe Illustrator 27.1.1, SVG Export Plug-In . SVG Version: 6.00 Build 0)  -->
<svg version="1.1" id="Lager_1" xmlns="http://www.w3.org/2000/svg" xmlns:xlink="http://www.w3.org/1999/xlink" x="0px" y="0px"
	 viewBox="0 0 68.65 23.7" style="enable-background:new 0 0 68.65 23.7;" xml:space="preserve">
<style type="text/css">
	.st0{fill:#FFFFFF;}
</style>
<path class="st0" d="M27.09,19.01c-3.62,0.6-6.74,1.11-9.87,1.63c-0.06-0.15-0.12-0.3-0.18-0.44c2.32-1.89,4.64-3.79,6.92-5.64
	c-0.02-0.23,0.02-0.4-0.04-0.47c-1.62-1.77-1.21-3.32,0.37-4.9c0.85-0.86,1.48-1.94,2.2-2.92c-0.09-0.1-0.18-0.21-0.27-0.31
	C17.56,11.22,8.92,16.48,0.27,21.75c-0.09-0.13-0.18-0.26-0.27-0.4c1.94-1.49,3.87-3.01,5.83-4.48c7.21-5.42,14.44-10.8,21.61-16.26
	c1.1-0.84,1.82-0.8,2.91,0c4.3,3.15,8.69,6.17,13,9.3c1.05,0.76,2.05,1.14,3.24,0.55c2.61-1.3,4.65-0.64,6.9,1.2
	c4.43,3.62,9.15,6.88,13.75,10.29c0.55,0.41,1.06,0.86,1.41,1.63c-7.05,0-14.1,0-21.52,0c0.88-1.33,1.61-2.44,2.59-3.93
	c-1.66,0.53-2.92,0.94-4.19,1.34c-0.08-0.11-0.15-0.23-0.23-0.34c1.25-1.02,2.5-2.04,4.02-3.28c-1.14-0.17-1.94-0.3-3.07-0.47
	c0.85-1.25,1.59-2.36,2.55-3.78c-0.72,0.29-1.16,0.43-1.57,0.64c-5.72,2.98-11.47,5.89-17.11,9c-2.07,1.14-4.09,1.02-6.66,0.81
	c0.7-0.9,1.19-1.55,1.7-2.19C25.69,20.71,26.23,20.06,27.09,19.01z"/>
</svg>
