<svg width="80" height="35" viewBox="0 0 80 35" fill="none" xmlns="http://www.w3.org/2000/svg">
<path d="M31.5522 27.8823C27.384 28.7426 23.7916 29.4738 20.1877 30.2194C20.1186 30.0044 20.0495 29.7893 19.9804 29.5885C22.6517 26.8786 25.323 24.1543 27.9482 21.5016C27.9252 21.1718 27.9713 20.9281 27.9022 20.8277C26.0369 18.2898 26.509 16.0673 28.3282 13.8018C29.3069 12.5687 30.0323 11.0202 30.8613 9.61501L30.5504 9.17051C20.5792 16.7126 10.631 24.2546 0.671233 31.811C0.567606 31.6246 0.463979 31.4382 0.360352 31.2375C2.5941 29.101 4.81632 26.9216 7.0731 24.8138C15.3633 17.0567 23.6995 9.34257 31.9552 1.49941C33.2217 0.294977 34.0507 0.352331 35.3058 1.49941C40.2569 6.01604 45.3116 10.3463 50.2742 14.8342C51.4831 15.9239 52.6346 16.4688 54.0047 15.6228C57.0099 13.7588 59.3588 14.7052 61.9495 17.3435C67.0503 22.534 72.4849 27.2084 77.7815 32.0978C78.4147 32.6857 79.0019 33.3309 79.4049 34.435H54.6265C55.6398 32.5279 56.4803 30.9364 57.6087 28.7999C55.6973 29.5599 54.2465 30.1477 52.7842 30.7213C52.6921 30.5636 52.6115 30.3915 52.5194 30.2338C53.9587 28.7712 55.398 27.3087 57.1481 25.5307C55.8355 25.287 54.9144 25.1006 53.6133 24.8568C54.592 23.0645 55.444 21.473 56.5494 19.4369C55.7204 19.8527 55.2137 20.0534 54.7417 20.3545C48.1556 24.6274 41.5349 28.7999 35.041 33.2592C32.6575 34.8938 30.3317 34.7217 27.3725 34.4206C28.1785 33.1302 28.7427 32.1982 29.3299 31.2805C29.9402 30.3341 30.5619 29.4021 31.5522 27.8966V27.8823Z" fill="white"/>
</svg>
