<?xml version="1.0" encoding="utf-8"?>
<!-- Generator: Adobe Illustrator 27.1.1, SVG Export Plug-In . SVG Version: 6.00 Build 0)  -->
<svg version="1.1" id="Lager_1" xmlns="http://www.w3.org/2000/svg" xmlns:xlink="http://www.w3.org/1999/xlink" x="0px" y="0px"
	 viewBox="0 0 405.23 239.34" style="enable-background:new 0 0 405.23 239.34;" xml:space="preserve">
<g>
	<path d="M364.77,128.41h11.81c1.71,0,3.12-1.42,3.12-3.14v-19.63c0-1.72-1.42-3.13-3.12-3.13h-33.25c-1.71,0-3.11-1.39-3.11-3.11
		V8.5c0-1.72-1.4-3.12-3.13-3.12h-22.28c-1.72,0-3.12,1.4-3.12,3.12v90.89c0,1.72-1.41,3.11-3.14,3.11h-27.2
		c-2.18,0-3.11-1.29-3.11-3.11V8.5c0-1.72-1.41-3.12-3.13-3.12h-22.3c-1.73,0-3.15,1.4-3.15,3.12v90.89c0,1.72-1.39,3.11-3.12,3.11
		H202.7c-1.74,0-3.13-1.39-3.13-3.11V82.14c0-1.72,1.4-3.12,3.13-3.12h26.83c1.86,0,3.12-1.48,3.12-2.93V56.06
		c0-1.95-1.76-3.12-3.68-3.12H202.7c-1.74,0-3.13-1.41-3.13-3.13V34.59c0-1.72,1.4-3.12,3.13-3.12h26.56c1.9,0,3.39-1.35,3.39-3.12
		V8.5c0-1.31-1.17-3.12-3.6-3.12H163.3c-1.32,0-2.48,0.58-3.8,1.93l-50.94,52.17V8.5c0-1.72-1.42-3.12-3.12-3.12H83.06
		c-1.72,0-3.12,1.4-3.12,3.12v9.53C73.06,5.1,56.53,0,43.68,0C22.71,0,1.87,13.38,1.87,36.89c0,23.52,20.82,32.33,29.61,35.88
		c19.3,8.12,24.53,10.15,24.53,18.44c0,5.76-4.56,12.02-12.17,12.02c-12.08,0-12.86-13.97-12.86-13.97c-0.12-2-1.42-3.12-3.3-3.12
		H3.12C1.24,86.13,0,87.42,0,88.78c0,2.67,0.05,9.38,2.68,16c3.22,8.1,7.18,11.42,7.18,11.42s-1.68-0.03-4.19-0.03
		c-2.54,0-3.85,1.15-3.85,3.52v116.52c0,1.72,1.18,3.12,3.2,3.12H74.8c3.73,0,5.83,0,6.68,0c0.84,0,2.96,0,4.67,0h19.28
		c1.71,0,3.12-1.25,3.12-3.12v-42.32c0-1.96,1.26-3.13,3.12-3.13h26.84c1.72,0,3.12-1.31,3.12-3.12v-19.82
		c0-2.01-1.4-3.14-3.12-3.14h-26.84c-1.84,0-3.12-1.16-3.12-3.12v-16.21c0-1.85,1.14-3.13,3.12-3.13h56.2c1.9,0,3.12,1.19,3.12,3.13
		v90.87c0,1.72,1.4,3.12,3.11,3.12h22.32c1.72,0,3.13-1.4,3.13-3.12v-90.87c0-1.98,1.26-3.13,3.13-3.13h22.7
		c1.95,0,3.12,1.28,3.12,3.13v90.87c0,1.91,1.23,3.12,2.96,3.12h81.5c2.02,0,3.97-0.94,4.74-2.96l7.91-20.7
		c0.58-1.61,1.59-2.42,3.3-2.42h34.87c2.01,0,2.66,0.9,3.19,2.53l7.77,20.28c0.86,2.16,2.17,3.24,4.44,3.24h22.99
		c2.39,0,3.52-2.24,2.87-3.88L364.77,128.41z M32.67,36.55c0-5.92,5.42-9.81,11-9.81c9.82,0,11.08,9.08,11.08,9.08
		c0.24,1.89,1.28,3.1,3.55,3.1h18.55c1.72,0,3.09,1.07,3.09,3.01v30.11c-3.65-5.34-11.04-11.18-22.38-16.36
		C35.08,45.42,32.67,43.99,32.67,36.55z M79.94,209.33c0,2.84-1.4,3.92-3.12,3.92h-43.3c-1.85,0-3.13-1.14-3.13-3.14v-16.23
		c0-1.94,1.24-3.13,3.13-3.13h26.84c1.86,0,3.12-1.22,3.12-3.12V167.8c0-2.07-1.33-3.12-3.12-3.12H33.52c-2,0-3.13-1.35-3.13-3.13
		v-16.2c0-1.94,1.17-3.13,3.13-3.13h26.84c1.82,0,3.12-1.2,3.12-3.14v-9.24c0-1.81,1.02-2.62,2.05-3.11
		c11.26-5.25,14.42-13.26,14.42-13.26L79.94,209.33z M111.69,116.2c-1.96,0-3.12-1.23-3.12-3.12l-0.02-37.04
		c0,0,39.78,40.16,39.63,40.16C148.01,116.2,111.69,116.2,111.69,116.2z M171.06,102.5l-32.92-32.8c-1.38-1.31-1.35-3.16,0.04-4.74
		l32.88-33.5V102.5z M297.1,210.35c-0.63,1.6-2.57,2.9-4.29,2.9h-32.55c-1.73,0-3.13-1.41-3.13-3.14v-16.23
		c0-1.72,1.4-3.13,3.13-3.13h26.83c1.72,0,3.12-1.41,3.12-3.12V167.8c0-1.72-1.41-3.12-3.12-3.12h-26.83c-1.73,0-3.13-1.4-3.13-3.13
		v-16.2c0-1.73,1.4-3.13,3.13-3.13h26.83c1.72,0,3.12-1.42,3.12-3.14v-7.55c0-1.73,1.41-3.12,3.12-3.12h34.59L297.1,210.35z
		 M335.05,190.76l11.25-30.24l11.34,30.24H335.05z"/>
</g>
</svg>
