<?xml version="1.0" encoding="utf-8"?>
<!-- Generator: Adobe Illustrator 27.1.1, SVG Export Plug-In . SVG Version: 6.00 Build 0)  -->
<svg version="1.1" id="Lager_1" xmlns="http://www.w3.org/2000/svg" xmlns:xlink="http://www.w3.org/1999/xlink" x="0px" y="0px"
	 viewBox="0 0 799.43 941.44" style="enable-background:new 0 0 799.43 941.44;" xml:space="preserve">
<style type="text/css">
	.st0{fill:#657B9F;}
</style>
<g id="_x36_cma5c_00000081620329693546118580000002501695575177212307_">
	<g>
		<path class="st0" d="M596.58,769c-12.48,1.06-23.91-2.57-34.87-8.15c-15.11-7.69-30.27-15.29-45.27-23.19
			c-12.75-6.71-25.33-13.75-37.94-20.72c-9.43-5.21-18.93-10.31-28.13-15.89c-5.69-3.45-11.51-6.47-17.74-8.76
			c-6.72-2.47-13.67-3.93-20.82-4.19c-4.83-0.17-9.67,0.02-14.5-0.05c-10.05-0.15-19.75,1.94-29.31,4.68
			c-3.14,0.9-6.1,2.52-9.05,3.98c-8.2,4.04-16.45,7.97-24.49,12.3c-9.94,5.35-19.68,11.07-29.51,16.61
			c-5.79,3.26-11.53,6.61-17.4,9.71c-14.55,7.7-29.09,15.43-43.79,22.85c-8.41,4.24-16.94,8.43-26.39,9.97
			c-5.98,0.98-11.86,1.83-18.11,1.21c-8.02-0.8-15.78-2.25-23.14-5.28c-5.34-2.2-10.49-5-15.39-8.09c-4.46-2.81-8.66-6.15-12.6-9.66
			c-3.07-2.74-5.82-5.94-8.3-9.24c-4.98-6.64-9.52-13.55-12.47-21.43c-4.49-12.01-6.69-24.2-4.38-37c0.64-3.57,0.65-7.25,1.15-10.85
			c0.88-6.37,1.97-12.72,2.87-19.09c0.79-5.56,1.28-11.17,2.2-16.7c1.33-7.98,2.95-15.91,4.39-23.87
			c1.55-8.61,3.02-17.24,4.56-25.85c1.16-6.5,2.47-12.97,3.54-19.48c0.94-5.7,1.63-11.44,2.43-17.17c0.41-2.95,0.85-5.89,1.21-8.84
			c0.62-5.08,1.57-10.15,1.71-15.24c0.26-9.72-2.15-18.96-5.63-28.03c-4.15-10.81-11.2-19.54-19.09-27.63
			c-8.13-8.32-16.65-16.26-25.15-24.22c-6.3-5.89-12.83-11.54-19.25-17.29c-6.43-5.76-12.98-11.38-19.24-17.3
			c-10.03-9.48-19.75-19.3-29.84-28.73c-14.08-13.17-22.22-29.52-26.7-47.99c-2.1-8.64-2.52-17.44-1.88-26.21
			c0.52-7.09,2.61-13.92,5.12-20.62c4.6-12.3,12.14-22.52,21.93-31.01c9.49-8.22,20.28-14.23,32.42-17.89
			c7.98-2.41,16.1-3.58,24.31-4.67c7.36-0.98,14.63-2.54,21.97-3.69c5.55-0.87,11.15-1.42,16.7-2.26
			c6.69-1.01,13.35-2.24,20.04-3.28c6.2-0.96,12.41-1.79,18.61-2.69c1.96-0.29,3.9-0.71,5.86-0.97c10.48-1.38,21.05-2.26,31.41-4.22
			c11.55-2.18,22.94-5.23,33.5-10.75c6.67-3.48,12.8-7.75,18.21-12.89c5.06-4.82,8.9-10.72,12.14-16.91
			c9.55-18.26,19.24-36.45,28.42-54.9c8.12-16.33,15.43-33.07,23.46-49.45c5.6-11.42,10.7-23.14,18.48-33.39
			c5.34-7.04,11.23-13.46,18.11-19.07c5.86-4.78,12.27-8.5,19.18-11.31c3.78-1.54,7.92-2.52,11.98-2.99
			c6.24-0.72,12.56-0.83,18.85-1.13c6.18-0.29,12.22,0.85,18.2,2.18c12.69,2.81,23.95,8.41,33.85,16.97
			c3.93,3.4,7.29,7.21,10.29,11.32c6.96,9.54,12.81,19.78,18.22,30.27c3.35,6.48,6.99,12.81,10.12,19.4
			c5.49,11.55,10.54,23.31,16.06,34.85c5.81,12.15,12.08,24.07,17.9,36.21c5.04,10.5,11.43,20.19,17.33,30.17
			c3.13,5.29,7.48,9.34,12.21,12.9c7.15,5.39,15,9.67,23.48,12.76c11.11,4.05,22.58,6.39,34.25,8c6.54,0.9,13.04,2.38,19.6,2.71
			c6.65,0.33,13.14,1.61,19.72,2.11c6.96,0.53,13.71,2.12,20.57,3.1c7.19,1.02,14.25,2.74,21.56,3.19c6.56,0.4,13.04,2.13,19.6,2.73
			c7.13,0.66,14.02,2.28,20.93,3.93c17.33,4.13,31.97,12.84,43.72,26.21c8.67,9.86,14.77,21.15,18.09,33.94
			c2.54,9.77,3.32,19.73,2.33,29.63c-1.46,14.62-7.03,27.88-15.74,39.76c-0.2,0.27-0.45,0.49-0.68,0.73
			c-13.72,14.05-27.29,28.26-41.19,42.13c-20.5,20.46-41.47,40.45-61.78,61.1c-8.7,8.84-16.64,18.48-21.71,30.14
			c-4.15,9.54-5.94,19.23-3.95,29.54c0.34,1.77,0.23,3.65,0.19,5.48c-0.18,6.66,0.72,13.2,1.84,19.74c0.64,3.74,0.7,7.58,1.19,11.34
			c0.99,7.53,1.99,15.07,3.19,22.57c1.12,7.01,2.49,13.97,3.78,20.95c2.28,12.34,4.73,24.65,6.83,37.02
			c1.63,9.6,2.81,19.28,4.26,28.92c0.86,5.71,2.19,11.37,2.68,17.11c0.37,4.42-0.24,8.92-0.42,13.38
			c-0.24,6.05-2.17,11.69-4.38,17.24c-3.24,8.11-7.96,15.32-13.89,21.69c-4.64,4.98-9.48,9.76-15.32,13.44
			c-11.19,7.06-23.22,11.98-36.3,14.03C604.02,769.47,600.28,769,596.58,769z"/>
		<path class="st0" d="M377.13,833c0-28.32,0.19-56.65-0.08-84.97c-0.15-15.44,12.82-24.58,24.84-23.98
			c10.95,0.55,20.25,10.64,21.46,19.66c0.67,4.99,0.79,9.91,0.79,14.88c0.03,51.98,0.01,103.96,0.02,155.94
			c0,4.88-0.85,9.52-3.12,13.91c-4.87,9.39-15.32,14.84-25.48,12.44c-7.38-1.75-13.1-6.16-16.43-13.29
			c-1.51-3.24-2.05-6.54-2.04-10.12C377.17,889.31,377.13,861.15,377.13,833z"/>
		<path class="st0" d="M303.12,823.14c0-13.66,0.36-27.32-0.11-40.96c-0.38-10.86,11.48-22.63,22.39-22.37
			c6.42,0.15,11.83,1.95,16.47,5.82c2.57,2.15,4.76,5.28,5.98,8.41c1.42,3.62,2.18,7.72,2.21,11.62
			c0.19,25.31,0.23,50.63,0.03,75.94c-0.07,9.11-3.55,16.82-11.75,21.72c-7.59,4.54-15.53,4.64-23.18,0.63
			c-7.79-4.09-11.88-10.99-11.99-19.83C303,850.46,303.12,836.8,303.12,823.14z"/>
		<path class="st0" d="M448.14,822.52c0-13.15,0.08-26.3-0.02-39.45c-0.08-11.17,8.17-20.34,17.1-22.47
			c13.9-3.31,26.84,4.26,28.95,18.26c0.56,3.75,0.94,7.56,0.95,11.34c0.08,23.8,0.13,47.61,0,71.41
			c-0.05,10.05-4.26,17.88-13.43,22.68c-8.39,4.39-17.27,2.81-24.21-2.47c-6.48-4.93-9.57-11.52-9.41-19.85
			C448.32,848.82,448.14,835.67,448.14,822.52z"/>
	</g>
</g>
</svg>
