<svg width="558" height="558" viewBox="0 0 558 558" fill="none" xmlns="http://www.w3.org/2000/svg">
<mask id="mask0_474_166" style="mask-type:alpha" maskUnits="userSpaceOnUse" x="0" y="0" width="558" height="558">
<circle cx="278.556" cy="278.556" r="278.556" fill="#D9D9D9"/>
</mask>
<g mask="url(#mask0_474_166)">
<path d="M288.739 557.112H647.43C695.451 557.112 734.385 518.674 734.385 460.535V331.766H288.739V557.112ZM647.43 -0.888184H288.739V224.458H734.385V84.958C734.385 62.1902 725.224 40.3548 708.916 24.2556C692.609 8.15629 670.492 -0.888184 647.43 -0.888184ZM180.045 -0.888184H38.7427C15.6921 -0.88819 -6.41547 8.14745 -22.7209 24.2328C-39.0263 40.3182 -48.1952 62.1369 -48.2125 84.8936L-48.2125 224.458H180.045V-0.888184ZM-48.2125 331.766V460.621C-48.169 518.717 -9.25656 557.112 38.7427 557.112H180.045V331.766H-48.2125Z" fill="#006AA7"/>
<path d="M288.739 -0.888184H180.045V224.458H-48.2125V331.766H180.045V557.112H288.739V331.766H734.385V224.458H288.739V-0.888184Z" fill="#FECC00"/>
</g>
</svg>
