<?xml version="1.0" encoding="UTF-8"?><svg id="Lager_1" xmlns="http://www.w3.org/2000/svg" xmlns:xlink="http://www.w3.org/1999/xlink" viewBox="0 0 74.23 63.3"><defs><style>.cls-1{fill:#fff;}.cls-2{fill:#1d1d1b;}.cls-3{filter:url(#drop-shadow-1);}</style><filter id="drop-shadow-1" filterUnits="userSpaceOnUse"><feOffset dx=".57" dy=".57"/><feGaussianBlur result="blur" stdDeviation=".57"/><feFlood flood-color="#1d1d1b" flood-opacity=".5"/><feComposite in2="blur" operator="in"/><feComposite in="SourceGraphic"/></filter></defs><g class="cls-3"><g><path class="cls-1" d="m12.55,48.29v14.81h-2.44l-6.88-9.93h-.12v9.93H.34v-14.81h2.47l6.85,9.93h.13v-9.93h2.75Z"/><path class="cls-1" d="m28.71,55.69c0,1.6-.3,2.97-.9,4.1-.6,1.14-1.41,2-2.44,2.6s-2.2.9-3.49.9-2.47-.3-3.5-.9c-1.03-.6-1.84-1.47-2.44-2.61-.6-1.13-.89-2.5-.89-4.1s.3-2.97.89-4.1c.59-1.13,1.41-2,2.44-2.6,1.03-.6,2.19-.9,3.5-.9s2.46.3,3.49.9c1.03.6,1.85,1.47,2.44,2.6s.9,2.5.9,4.1Zm-2.79,0c0-1.11-.17-2.04-.51-2.8-.34-.76-.82-1.34-1.42-1.73-.61-.39-1.31-.59-2.1-.59s-1.5.2-2.1.59-1.08.97-1.42,1.73-.51,1.7-.51,2.8.17,2.04.51,2.81c.34.76.82,1.34,1.42,1.73s1.3.59,2.1.59,1.5-.2,2.1-.59c.61-.39,1.08-.97,1.42-1.73.34-.76.51-1.7.51-2.81Z"/><path class="cls-1" d="m31.21,63.09v-14.81h5.61c1.13,0,2.09.2,2.87.59.78.4,1.37.95,1.77,1.67s.6,1.55.6,2.5-.2,1.78-.61,2.48c-.41.7-1,1.24-1.79,1.62s-1.75.57-2.88.57h-3.95v-2.28h3.56c.65,0,1.19-.09,1.6-.27.42-.18.73-.45.93-.8.2-.35.3-.79.3-1.3s-.1-.96-.31-1.33c-.2-.37-.52-.64-.94-.83-.42-.19-.96-.29-1.61-.29h-2.39v12.5h-2.77Zm7.72-6.72l3.67,6.72h-3.09l-3.59-6.72h3.01Z"/><path class="cls-1" d="m43.84,50.6v-2.31h11.88v2.31h-4.57v12.49h-2.75v-12.49h-4.56Z"/><path class="cls-1" d="m57.94,63.09v-14.81h2.77v6.24h6.77v-6.24h2.77v14.81h-2.77v-6.25h-6.77v6.25h-2.77Z"/></g><g><path class="cls-2" d="m8.57,33.59c-.07-.62-.34-1.1-.83-1.45-.49-.34-1.12-.52-1.91-.52-.55,0-1.02.08-1.41.24-.39.16-.69.38-.9.67-.21.28-.31.6-.31.97,0,.3.06.56.2.78.14.22.33.41.57.56.24.15.51.28.8.39.3.11.6.2.91.27l1.37.34c.58.13,1.13.31,1.65.53s.99.51,1.4.85c.41.34.73.75.97,1.23.24.48.35,1.03.35,1.67,0,.88-.22,1.64-.67,2.3s-1.09,1.17-1.93,1.54c-.84.37-1.85.55-3.04.55s-2.17-.18-3.02-.54c-.85-.36-1.52-.88-2-1.58s-.74-1.54-.77-2.53h2.71c.04.51.2.94.47,1.28.27.34.64.59,1.08.76.45.17.95.25,1.5.25s1.08-.09,1.51-.26c.43-.17.77-.41,1.02-.72.25-.31.37-.67.37-1.07,0-.38-.11-.69-.33-.94-.22-.25-.52-.46-.91-.63-.39-.17-.86-.32-1.39-.46l-1.67-.43c-1.22-.31-2.19-.79-2.9-1.43-.71-.64-1.06-1.49-1.06-2.56,0-.88.24-1.64.71-2.3.47-.66,1.13-1.17,1.95-1.54.83-.37,1.76-.55,2.8-.55s1.99.18,2.79.55c.8.37,1.43.87,1.88,1.52.45.65.69,1.39.7,2.24h-2.66Z"/><path class="cls-2" d="m18.95,44.29l-4.19-14.81h2.99l2.62,10.76h.13l2.82-10.76h2.69l2.82,10.77h.13l2.62-10.77h2.99l-4.19,14.81h-2.73l-2.94-10.24h-.12l-2.94,10.24h-2.73Z"/><path class="cls-2" d="m41.22,29.48v14.81h-2.77v-14.81h2.77Z"/><path class="cls-2" d="m46.1,44.29v-14.81h5.61c1.14,0,2.09.21,2.87.64.78.42,1.37,1.01,1.77,1.75.4.74.6,1.59.6,2.54s-.2,1.81-.61,2.55c-.41.74-1,1.32-1.79,1.74-.78.42-1.75.63-2.89.63h-3.69v-2.27h3.3c.66,0,1.19-.11,1.61-.34.42-.23.73-.54.93-.94.2-.4.3-.86.3-1.38s-.1-.97-.3-1.37c-.2-.4-.51-.7-.93-.92-.42-.22-.96-.33-1.62-.33h-2.39v12.5h-2.77Z"/><path class="cls-2" d="m61.25,44.29v-14.81h9.7v2.31h-6.93v3.93h6.43v2.31h-6.43v3.94h6.98v2.31h-9.75Z"/></g><path class="cls-2" d="m27.51,19.01c-3.62.6-6.74,1.11-9.87,1.63-.06-.15-.12-.3-.18-.44,2.32-1.89,4.64-3.79,6.92-5.64-.02-.23.02-.4-.04-.47-1.62-1.77-1.21-3.32.37-4.9.85-.86,1.48-1.94,2.2-2.92l-.27-.31C17.98,11.22,9.34,16.48.69,21.75c-.09-.13-.18-.26-.27-.4,1.94-1.49,3.87-3.01,5.83-4.48C13.45,11.46,20.69,6.08,27.86.61c1.1-.84,1.82-.8,2.91,0,4.3,3.15,8.69,6.17,13,9.3,1.05.76,2.05,1.14,3.24.55,2.61-1.3,4.65-.64,6.9,1.2,4.43,3.62,9.15,6.88,13.75,10.29.55.41,1.06.86,1.41,1.63h-21.52c.88-1.33,1.61-2.44,2.59-3.93-1.66.53-2.92.94-4.19,1.34-.08-.11-.15-.23-.23-.34,1.25-1.02,2.5-2.04,4.02-3.28-1.14-.17-1.94-.3-3.07-.47.85-1.25,1.59-2.36,2.55-3.78-.72.29-1.16.43-1.57.64-5.72,2.98-11.47,5.89-17.11,9-2.07,1.14-4.09,1.02-6.66.81.7-.9,1.19-1.55,1.7-2.19.53-.66,1.07-1.31,1.93-2.36Z"/></g><g><path d="m72.76,61.95v.04c0,.36,0,.72,0,1.08t-.04.04c-.09,0-.18,0-.27,0h-.04v-1.68s.02,0,.03,0c.15,0,.31,0,.46,0,.02,0,.03,0,.04.03.12.37.25.73.37,1.09,0,0,0,.02.01.04.13-.39.25-.77.37-1.16h.52v1.68h-.35v-1.18s0,0,0,0c-.01.03-.02.07-.04.1-.12.35-.24.7-.36,1.06,0,.02-.02.03-.04.03-.08,0-.16,0-.23,0-.02,0-.03,0-.03-.03-.12-.36-.25-.71-.37-1.07,0-.02-.02-.04-.02-.07,0,0,0,0,0,0Z"/><path d="m72.22,61.74h-.51s0,.03,0,.04c0,.43,0,.86,0,1.29,0,.03,0,.04-.04.04-.1,0-.2,0-.3,0h-.04v-1.37h-.5v-.31h1.38v.31Z"/></g></svg>