<?xml version="1.0" encoding="utf-8"?>
<!-- Generator: Adobe Illustrator 27.1.1, SVG Export Plug-In . SVG Version: 6.00 Build 0)  -->
<svg version="1.1" id="Lager_1" xmlns="http://www.w3.org/2000/svg" xmlns:xlink="http://www.w3.org/1999/xlink" x="0px" y="0px"
	 viewBox="0 0 71 63.3" style="enable-background:new 0 0 71 63.3;" xml:space="preserve">
<g>
	<g>
		<path d="M12.55,48.29v14.81h-2.44l-6.88-9.93H3.11v9.93H0.34V48.29h2.47l6.85,9.93H9.8v-9.93H12.55z"/>
		<path d="M28.71,55.69c0,1.6-0.3,2.97-0.9,4.1c-0.6,1.14-1.41,2-2.44,2.6s-2.2,0.9-3.49,0.9c-1.3,0-2.47-0.3-3.5-0.9
			c-1.03-0.6-1.84-1.47-2.44-2.61c-0.6-1.13-0.89-2.5-0.89-4.1c0-1.6,0.3-2.97,0.89-4.1c0.59-1.13,1.41-2,2.44-2.6
			c1.03-0.6,2.19-0.9,3.5-0.9c1.3,0,2.46,0.3,3.49,0.9c1.03,0.6,1.85,1.47,2.44,2.6C28.41,52.72,28.71,54.09,28.71,55.69z
			 M25.92,55.69c0-1.11-0.17-2.04-0.51-2.8c-0.34-0.76-0.82-1.34-1.42-1.73c-0.61-0.39-1.31-0.59-2.1-0.59c-0.8,0-1.5,0.2-2.1,0.59
			c-0.61,0.39-1.08,0.97-1.42,1.73c-0.34,0.76-0.51,1.7-0.51,2.8c0,1.11,0.17,2.04,0.51,2.81c0.34,0.76,0.82,1.34,1.42,1.73
			c0.61,0.39,1.3,0.59,2.1,0.59c0.8,0,1.5-0.2,2.1-0.59c0.61-0.39,1.08-0.97,1.42-1.73C25.75,57.73,25.92,56.8,25.92,55.69z"/>
		<path d="M31.21,63.09V48.29h5.61c1.13,0,2.09,0.2,2.87,0.59c0.78,0.4,1.37,0.95,1.77,1.67c0.4,0.72,0.6,1.55,0.6,2.5
			c0,0.95-0.2,1.78-0.61,2.48c-0.41,0.7-1,1.24-1.79,1.62c-0.79,0.38-1.75,0.57-2.88,0.57h-3.95v-2.28h3.56
			c0.65,0,1.19-0.09,1.6-0.27c0.42-0.18,0.73-0.45,0.93-0.8c0.2-0.35,0.3-0.79,0.3-1.3c0-0.52-0.1-0.96-0.31-1.33
			c-0.2-0.37-0.52-0.64-0.94-0.83c-0.42-0.19-0.96-0.29-1.61-0.29h-2.39v12.5H31.21z M38.93,56.38l3.67,6.72h-3.09l-3.59-6.72H38.93
			z"/>
		<path d="M43.84,50.6v-2.31h11.88v2.31h-4.57v12.49h-2.75V50.6H43.84z"/>
		<path d="M57.94,63.09V48.29h2.77v6.24h6.77v-6.24h2.77v14.81h-2.77v-6.25h-6.77v6.25H57.94z"/>
	</g>
	<g>
		<path d="M8.57,33.59c-0.07-0.62-0.34-1.1-0.83-1.45c-0.49-0.34-1.12-0.52-1.91-0.52c-0.55,0-1.02,0.08-1.41,0.24
			c-0.39,0.16-0.69,0.38-0.9,0.67c-0.21,0.28-0.31,0.6-0.31,0.97c0,0.3,0.06,0.56,0.2,0.78c0.14,0.22,0.33,0.41,0.57,0.56
			c0.24,0.15,0.51,0.28,0.8,0.39c0.3,0.11,0.6,0.2,0.91,0.27l1.37,0.34c0.58,0.13,1.13,0.31,1.65,0.53c0.52,0.23,0.99,0.51,1.4,0.85
			c0.41,0.34,0.73,0.75,0.97,1.23c0.24,0.48,0.35,1.03,0.35,1.67c0,0.88-0.22,1.64-0.67,2.3c-0.45,0.66-1.09,1.17-1.93,1.54
			c-0.84,0.37-1.85,0.55-3.04,0.55c-1.16,0-2.17-0.18-3.02-0.54c-0.85-0.36-1.52-0.88-2-1.58C0.29,41.71,0.03,40.86,0,39.87h2.71
			c0.04,0.51,0.2,0.94,0.47,1.28c0.27,0.34,0.64,0.59,1.08,0.76c0.45,0.17,0.95,0.25,1.5,0.25c0.57,0,1.08-0.09,1.51-0.26
			c0.43-0.17,0.77-0.41,1.02-0.72c0.25-0.31,0.37-0.67,0.37-1.07c0-0.38-0.11-0.69-0.33-0.94c-0.22-0.25-0.52-0.46-0.91-0.63
			c-0.39-0.17-0.86-0.32-1.39-0.46l-1.67-0.43c-1.22-0.31-2.19-0.79-2.9-1.43c-0.71-0.64-1.06-1.49-1.06-2.56
			c0-0.88,0.24-1.64,0.71-2.3c0.47-0.66,1.13-1.17,1.95-1.54c0.83-0.37,1.76-0.55,2.8-0.55c1.06,0,1.99,0.18,2.79,0.55
			c0.8,0.37,1.43,0.87,1.88,1.52c0.45,0.65,0.69,1.39,0.7,2.24H8.57z"/>
		<path d="M18.95,44.29l-4.19-14.81h2.99l2.62,10.76h0.13l2.82-10.76h2.69l2.82,10.77h0.13l2.62-10.77h2.99L30.4,44.29h-2.73
			l-2.94-10.24h-0.12l-2.94,10.24H18.95z"/>
		<path d="M41.22,29.48v14.81h-2.77V29.48H41.22z"/>
		<path d="M46.1,44.29V29.48h5.61c1.14,0,2.09,0.21,2.87,0.64c0.78,0.42,1.37,1.01,1.77,1.75c0.4,0.74,0.6,1.59,0.6,2.54
			c0,0.96-0.2,1.81-0.61,2.55c-0.41,0.74-1,1.32-1.79,1.74c-0.78,0.42-1.75,0.63-2.89,0.63h-3.69v-2.27h3.3
			c0.66,0,1.19-0.11,1.61-0.34c0.42-0.23,0.73-0.54,0.93-0.94c0.2-0.4,0.3-0.86,0.3-1.38c0-0.52-0.1-0.97-0.3-1.37
			c-0.2-0.4-0.51-0.7-0.93-0.92c-0.42-0.22-0.96-0.33-1.62-0.33h-2.39v12.5H46.1z"/>
		<path d="M61.25,44.29V29.48h9.7v2.31h-6.93v3.93h6.43v2.31h-6.43v3.94H71v2.31H61.25z"/>
	</g>
	<path d="M27.51,19.01c-3.62,0.6-6.74,1.11-9.87,1.63c-0.06-0.15-0.12-0.3-0.18-0.44c2.32-1.89,4.64-3.79,6.92-5.64
		c-0.02-0.23,0.02-0.4-0.04-0.47c-1.62-1.77-1.21-3.32,0.37-4.9c0.85-0.86,1.48-1.94,2.2-2.92c-0.09-0.1-0.18-0.21-0.27-0.31
		C17.98,11.22,9.34,16.48,0.69,21.75c-0.09-0.13-0.18-0.26-0.27-0.4c1.94-1.49,3.87-3.01,5.83-4.48
		c7.21-5.42,14.44-10.8,21.61-16.26c1.1-0.84,1.82-0.8,2.91,0c4.3,3.15,8.69,6.17,13,9.3c1.05,0.76,2.05,1.14,3.24,0.55
		c2.61-1.3,4.65-0.64,6.9,1.2c4.43,3.62,9.15,6.88,13.75,10.29c0.55,0.41,1.06,0.86,1.41,1.63c-7.05,0-14.1,0-21.52,0
		c0.88-1.33,1.61-2.44,2.59-3.93c-1.66,0.53-2.92,0.94-4.19,1.34c-0.08-0.11-0.15-0.23-0.23-0.34c1.25-1.02,2.5-2.04,4.02-3.28
		c-1.14-0.17-1.94-0.3-3.07-0.47c0.85-1.25,1.59-2.36,2.55-3.78c-0.72,0.29-1.16,0.43-1.57,0.64c-5.72,2.98-11.47,5.89-17.11,9
		c-2.07,1.14-4.09,1.02-6.66,0.81c0.7-0.9,1.19-1.55,1.7-2.19C26.11,20.71,26.65,20.06,27.51,19.01z"/>
</g>
</svg>
